<svg xmlns="http://www.w3.org/2000/svg" viewBox="0 0 585.94 650.24" fill="currentColor">
  <!-- African continent with country boundaries -->
  <g>
    <!-- Morocco -->
    <path d="M147.5,48.2l12.3-4.8l15.2,1.2l8.7,6.2l-2.3,15.8l-17.2,13.2l-18.7-2.8l-5.8-13.2L147.5,48.2z"/>
    <!-- Algeria -->
    <path d="M175,44.6l35.2-5.2l25.7,8.5l5.8,35.2l-15.2,28.5l-32.8,12.8l-25.7-15.8l15.2-28.5l-8.7-6.2L175,44.6z"/>
    <!-- Tunisia -->
    <path d="M210.2,39.4l10.5-2.8l5.8,12.8l-8.7,8.5l-10.5-3.8L210.2,39.4z"/>
    <!-- Libya -->
    <path d="M220.7,36.6l32.8-5.2l35.2,8.5l8.7,35.2l-15.2,35.2l-35.2,12.8l-15.2-12.8l15.2-28.5l-8.7-35.2L220.7,36.6z"/>
    <!-- Egypt -->
    <path d="M288.7,40l28.5,5.8l12.8,28.5l-5.8,35.2l-28.5,12.8l-15.2-28.5l15.2-35.2L288.7,40z"/>
    <!-- Western Sahara -->
    <path d="M117.2,75.2l18.7,2.8l-5.8,32.8l-25.7,12.8l-8.7-22.8L117.2,75.2z"/>
    <!-- Mauritania -->
    <path d="M104.4,100.8l25.7-12.8l25.7,8.5l5.8,35.2l-25.7,22.8l-28.5-8.5l-8.7-28.5L104.4,100.8z"/>
    <!-- Mali -->
    <path d="M130.1,88l32.8,8.5l17.5,28.5l-8.7,35.2l-28.5,8.5l-15.2-22.8l5.8-35.2L130.1,88z"/>
    <!-- Niger -->
    <path d="M180.4,125l42.3-12.8l28.5,15.2l-8.7,35.2l-35.2,15.2l-22.8-8.5l-8.7-35.2L180.4,125z"/>
    <!-- Chad -->
    <path d="M251.2,127.4l35.2-12.8l15.2,22.8l-15.2,42.3l-35.2,8.5l-15.2-22.8l8.7-35.2L251.2,127.4z"/>
    <!-- Sudan -->
    <path d="M286.4,114.6l28.5-12.8l15.2,28.5l-8.7,48.8l-22.8,28.5l-22.8-8.5l8.7-42.3l-15.2-22.8L286.4,114.6z"/>
    <!-- Eritrea -->
    <path d="M329.6,101.8l22.8-8.5l8.7,22.8l-15.2,8.5l-8.7-8.5L329.6,101.8z"/>
    <!-- Djibouti -->
    <path d="M352.4,124.6l10.5-5.2l5.8,12.8l-8.7,5.2L352.4,124.6z"/>
    <!-- Ethiopia -->
    <path d="M307.2,130l42.3-8.5l15.2,35.2l-22.8,42.3l-28.5-5.8l-8.7-28.5L307.2,130z"/>
    <!-- Somalia -->
    <path d="M363.4,131.8l18.5,8.5l8.5,65l-42.3,42.3l-22.8-42.3l15.2-35.2L363.4,131.8z"/>
    <!-- Senegal -->
    <path d="M75.9,152.4l22.8-5.8l8.7,15.2l-12.8,8.5l-15.2-5.8L75.9,152.4z"/>
    <!-- Gambia -->
    <path d="M78.7,167.6l15.2-2.8l2.8,5.8l-15.2,2.8L78.7,167.6z"/>
    <!-- Guinea-Bissau -->
    <path d="M72.9,175.2l15.2-5.8l5.8,12.8l-12.8,5.8L72.9,175.2z"/>
    <!-- Guinea -->
    <path d="M80.9,187.8l22.8-8.5l12.8,15.2l-8.7,15.2l-18.7-5.8L80.9,187.8z"/>
    <!-- Sierra Leone -->
    <path d="M80.9,210l15.2-5.8l5.8,15.2l-12.8,5.8L80.9,210z"/>
    <!-- Liberia -->
    <path d="M93.7,219.4l18.7-8.5l8.7,18.7l-15.2,8.5L93.7,219.4z"/>
    <!-- Ivory Coast -->
    <path d="M112.4,210.9l25.7-8.5l12.8,25.7l-18.7,15.2l-15.2-18.7L112.4,210.9z"/>
    <!-- Burkina Faso -->
    <path d="M130.1,179.4l28.5-8.5l15.2,15.2l-15.2,18.7l-22.8-8.5L130.1,179.4z"/>
    <!-- Ghana -->
    <path d="M138.1,202.4l18.7-5.8l8.7,28.5l-15.2,15.2l-12.8-22.8L138.1,202.4z"/>
    <!-- Togo -->
    <path d="M156.8,196.6l8.7-2.8l5.8,32.8l-8.7,5.8L156.8,196.6z"/>
    <!-- Benin -->
    <path d="M165.5,193.8l12.8-5.8l5.8,35.2l-12.8,8.5L165.5,193.8z"/>
    <!-- Nigeria -->
    <path d="M178.3,178.6l35.2-8.5l15.2,28.5l-15.2,42.3l-28.5,5.8l-5.8-32.8L178.3,178.6z"/>
    <!-- Cameroon -->
    <path d="M213.5,198.6l28.5-8.5l12.8,35.2l-18.7,28.5l-22.8-8.5l15.2-28.5L213.5,198.6z"/>
    <!-- Central African Republic -->
    <path d="M242,190.1l42.3-8.5l8.7,35.2l-22.8,22.8l-28.5-8.5l12.8-28.5L242,190.1z"/>
    <!-- South Sudan -->
    <path d="M284.3,181.6l22.8,8.5l8.7,35.2l-22.8,28.5l-22.8-8.5l8.7-35.2L284.3,181.6z"/>
    <!-- Equatorial Guinea -->
    <path d="M195.1,262.4l12.8-5.8l5.8,12.8l-12.8,5.8L195.1,262.4z"/>
    <!-- Gabon -->
    <path d="M195.1,275.2l22.8-8.5l5.8,32.8l-22.8,8.5L195.1,275.2z"/>
    <!-- Republic of Congo -->
    <path d="M217.9,266.7l25.7-8.5l5.8,35.2l-18.7,15.2l-5.8-32.8L217.9,266.7z"/>
    <!-- DRC -->
    <path d="M230.7,253.9l48.8-8.5l15.2,42.3l-15.2,75l-35.2,15.2l-28.5-42.3l8.7-35.2l25.7-15.2L230.7,253.9z"/>
    <!-- Uganda -->
    <path d="M284.3,253.9l22.8-8.5l8.7,28.5l-15.2,15.2l-15.2-8.5L284.3,253.9z"/>
    <!-- Kenya -->
    <path d="M307.1,245.4l28.5,8.5l8.7,42.3l-22.8,22.8l-22.8-15.2l8.7-28.5L307.1,245.4z"/>
    <!-- Rwanda -->
    <path d="M274.1,289.6l15.2-5.8l5.8,12.8l-15.2,5.8L274.1,289.6z"/>
    <!-- Burundi -->
    <path d="M279.9,302.4l12.8-5.8l5.8,12.8l-12.8,5.8L279.9,302.4z"/>
    <!-- Tanzania -->
    <path d="M292.7,303.9l42.3-8.5l8.7,48.8l-28.5,28.5l-28.5-22.8l8.7-28.5L292.7,303.9z"/>
    <!-- Angola -->
    <path d="M188.6,335.4l35.2-8.5l15.2,62l-8.7,42.3l-35.2,8.5l-8.7-28.5l8.7-62L188.6,335.4z"/>
    <!-- Zambia -->
    <path d="M245.3,343.9l42.3-8.5l15.2,28.5l-22.8,28.5l-35.2-8.5L245.3,343.9z"/>
    <!-- Malawi -->
    <path d="M302.3,335.4l12.8-5.8l5.8,42.3l-12.8,5.8L302.3,335.4z"/>
    <!-- Mozambique -->
    <path d="M308.1,333.9l28.5-12.8l8.7,48.8l-22.8,62l-28.5-22.8l12.8-42.3L308.1,333.9z"/>
    <!-- Zimbabwe -->
    <path d="M265.3,384l28.5-8.5l8.7,28.5l-28.5,15.2L265.3,384z"/>
    <!-- Botswana -->
    <path d="M236.8,392.5l35.2-8.5l8.7,42.3l-22.8,15.2l-22.8-15.2L236.8,392.5z"/>
    <!-- Namibia -->
    <path d="M195.1,389l42.3-8.5l8.7,62l-28.5,15.2l-22.8-28.5L195.1,389z"/>
    <!-- South Africa -->
    <path d="M223.6,441.3l62-8.5l22.8,35.2l-28.5,28.5l-42.3-8.5l-22.8-28.5L223.6,441.3z"/>
    <!-- Lesotho -->
    <path d="M272.4,468.1l15.2-5.8l5.8,12.8l-15.2,5.8L272.4,468.1z"/>
    <!-- Eswatini -->
    <path d="M302.3,453.9l12.8-5.8l5.8,12.8l-12.8,5.8L302.3,453.9z"/>
    <!-- Madagascar -->
    <path d="M368.2,365.4l22.8-5.8l8.7,62l-22.8,28.5l-15.2-42.3L368.2,365.4z"/>
  </g>
</svg>